<?xml version='1.0' encoding='utf-8'?>
<svg xmlns="http://www.w3.org/2000/svg" width="100%" height="auto" viewBox="35 45 375 120">
	<path d="M 83.763 53.033 C 67.555 55.762, 54.038 65.119, 47.385 78.214 C 45.907 81.121, 44.097 85.750, 43.361 88.500 C 41.541 95.305, 41.634 112.176, 43.533 119.465 C 47.973 136.511, 61.154 148.854, 79.988 153.602 C 89.296 155.948, 112.069 155.111, 120.420 152.115 C 136.488 146.350, 146.907 135.518, 151.170 120.144 C 153.457 111.897, 153.600 96.725, 151.469 88.542 C 146.664 70.095, 132.975 57.721, 112.792 53.581 C 104.714 51.924, 91.797 51.680, 83.763 53.033 M 334.500 53.585 C 314.155 58.115, 299.539 72.515, 296.084 91.434 C 290.529 121.847, 304.913 146.230, 332.644 153.409 C 339.896 155.287, 359.261 155.555, 367.201 153.887 C 381.921 150.796, 395.401 140.800, 401.359 128.556 C 407.131 116.694, 408.209 99.294, 404.009 85.786 C 399.308 70.669, 387.648 59.632, 371 54.541 C 363.056 52.112, 343.424 51.597, 334.500 53.585 M 157.688 53.645 C 157.310 54.024, 157 76.758, 157 104.167 L 157 154 171.030 154 L 185.059 154 184.780 124.999 C 184.588 105.179, 184.833 95.999, 185.553 95.999 C 186.132 96, 187.620 99.148, 188.859 102.996 C 190.099 106.844, 194.661 118.431, 198.997 128.746 L 206.882 147.500 224.191 147.743 L 241.500 147.985 248.496 131.243 C 252.343 122.034, 256.892 110.471, 258.604 105.547 C 260.317 100.623, 262.133 96.456, 262.640 96.287 C 263.196 96.101, 263.403 107.524, 263.162 124.990 L 262.762 154 276.881 154 L 291 154 291 103.478 L 291 52.957 271.952 53.228 L 252.904 53.500 244.461 73.500 C 239.817 84.500, 233.962 99.141, 231.450 106.036 C 226.205 120.430, 225.468 121.890, 224.147 120.492 C 223.632 119.946, 221.096 113.875, 218.513 107 C 215.929 100.125, 209.692 85.275, 204.653 74 L 195.491 53.500 176.934 53.229 C 166.727 53.079, 158.066 53.267, 157.688 53.645 M 84.646 80.046 C 75.084 82.442, 71.782 88.296, 71.697 103 C 71.636 113.586, 73.033 119.204, 76.706 123.144 C 80.380 127.084, 86.141 128.267, 99.670 127.857 C 113.115 127.451, 116.914 126.008, 120.465 119.965 C 122.218 116.979, 122.500 114.771, 122.500 104 C 122.500 88.502, 121.113 84.830, 114.072 81.692 C 108.836 79.359, 91.303 78.378, 84.646 80.046 M 340.500 79.595 C 332.934 81.465, 329.873 83.321, 327.723 87.343 C 325.780 90.976, 325.500 93.012, 325.500 103.500 C 325.500 123.536, 328.815 127.217, 347.438 127.858 C 361.727 128.349, 367.932 126.981, 371.900 122.461 C 375.574 118.277, 376.514 114.155, 376.453 102.500 C 376.359 84.694, 371.578 79.982, 353.034 79.420 C 347.240 79.244, 341.600 79.323, 340.500 79.595" stroke="none" fill="black" fill-rule="evenodd"/>
</svg>
