<svg xmlns="http://www.w3.org/2000/svg" viewBox="0 0 1200 420" role="img" aria-label="OMO logo favicon">
  <defs>
    <style>
      .t { fill: #111111; }
    </style>
  </defs>
  <rect width="1200" height="420" fill="none"/>
  <g transform="translate(110,40) scale(1.1)">
    <path class="t" d="M160 0C71.6 0 0 71.6 0 160s71.6 160 160 160 160-71.6 160-160S248.4 0 160 0zm0 250c-49.7 0-90-40.3-90-90s40.3-90 90-90 90 40.3 90 90-40.3 90-90 90z"/>
    <path class="t" d="M380 0h120l120 260L740 0h120v320H776V130L680 320H520L424 130v190H380V0z"/>
    <path class="t" d="M980 0C891.6 0 820 71.6 820 160s71.6 160 160 160 160-71.6 160-160S1068.4 0 980 0zm0 250c-49.7 0-90-40.3-90-90s40.3-90 90-90 90 40.3 90 90-40.3 90-90 90z"/>
  </g>
</svg>
